<?xml version="1.0" standalone="no"?>
<!DOCTYPE svg PUBLIC "-//W3C//DTD SVG 20010904//EN"
 "http://www.w3.org/TR/2001/REC-SVG-20010904/DTD/svg10.dtd">
<svg version="1.0" xmlns="http://www.w3.org/2000/svg"
 width="2000.000000pt" height="2000.000000pt" viewBox="0 0 2000.000000 2000.000000"
 preserveAspectRatio="xMidYMid meet">
<metadata>
Created by potrace 1.11, written by Peter Selinger 2001-2013
</metadata>
<g transform="translate(0.000000,2000.000000) scale(0.100000,-0.100000)"
fill="#000000" stroke="none">
<path d="M19415 13760 l-30 -8 27 -1 c15 0 30 4 33 9 3 6 5 9 3 9 -2 -1 -16
-5 -33 -9z"/>
<path d="M19508 13763 c7 -3 16 -2 19 1 4 3 -2 6 -13 5 -11 0 -14 -3 -6 -6z"/>
<path d="M19317 13754 c-1 -1 -63 -5 -137 -8 -74 -4 -151 -9 -170 -11 -19 -2
-84 -7 -144 -10 -60 -4 -116 -8 -125 -10 -9 -1 -74 -6 -146 -10 -71 -4 -132
-8 -135 -10 -3 -2 -52 -6 -110 -10 -58 -4 -118 -9 -135 -11 -16 -2 -66 -6
-110 -9 -44 -3 -100 -7 -125 -10 -25 -2 -70 -7 -100 -10 -56 -5 -94 -9 -210
-21 -111 -11 -123 -12 -206 -18 -45 -4 -90 -8 -102 -11 -11 -2 -52 -6 -89 -10
-37 -3 -79 -8 -93 -10 -14 -3 -56 -7 -95 -11 -38 -3 -76 -7 -85 -9 -8 -1 -49
-6 -90 -10 -41 -4 -83 -9 -92 -10 -9 -2 -43 -6 -75 -10 -32 -3 -69 -8 -83 -10
-14 -2 -50 -6 -80 -10 -30 -3 -86 -10 -125 -15 -38 -5 -94 -12 -124 -16 -30
-3 -61 -7 -70 -9 -9 -1 -38 -6 -66 -9 -27 -4 -68 -9 -90 -12 -22 -4 -53 -7
-70 -9 -26 -3 -127 -17 -215 -30 -14 -2 -47 -7 -75 -11 -27 -3 -57 -8 -65 -9
-8 -2 -40 -6 -70 -10 -30 -4 -64 -9 -75 -11 -11 -2 -40 -7 -65 -10 -25 -3 -52
-7 -60 -9 -8 -2 -37 -7 -65 -10 -27 -4 -61 -9 -75 -11 -14 -3 -41 -7 -60 -10
-19 -2 -46 -6 -60 -9 -14 -3 -38 -7 -55 -9 -75 -12 -573 -96 -595 -101 -14 -3
-52 -10 -85 -15 -87 -15 -112 -19 -195 -35 -41 -8 -91 -17 -110 -20 -19 -3
-150 -28 -290 -56 -140 -28 -266 -52 -280 -55 -14 -2 -36 -7 -50 -10 -14 -3
-36 -8 -50 -11 -14 -2 -119 -24 -235 -49 -115 -24 -219 -46 -230 -48 -11 -2
-31 -7 -45 -10 -32 -8 -550 -126 -570 -131 -8 -2 -64 -15 -125 -30 -60 -15
-117 -28 -125 -30 -8 -2 -33 -8 -55 -14 -86 -21 -163 -40 -186 -45 -130 -28
-914 -241 -1304 -355 -157 -46 -162 -47 -295 -89 -52 -16 -142 -44 -200 -61
-132 -40 -206 -64 -615 -200 -306 -101 -410 -137 -790 -273 -397 -142 -1050
-397 -1462 -572 -250 -105 -534 -229 -683 -298 -36 -17 -108 -49 -160 -73 -52
-24 -149 -69 -215 -100 -66 -31 -149 -71 -185 -87 -84 -39 -733 -364 -825
-413 -38 -20 -126 -67 -195 -103 -69 -36 -176 -94 -239 -128 -62 -35 -116 -64
-120 -64 -3 0 -22 -11 -41 -24 -19 -13 -62 -38 -95 -55 -33 -18 -67 -36 -75
-41 -14 -8 -80 -46 -285 -163 -148 -84 -776 -466 -865 -527 -8 -5 -37 -24 -65
-42 -483 -309 -1160 -787 -1584 -1117 -180 -140 -600 -479 -621 -501 -3 -3
-34 -30 -70 -60 -36 -30 -67 -57 -70 -60 -3 -3 -34 -30 -70 -60 -36 -30 -67
-57 -70 -61 -3 -3 -43 -39 -90 -79 -96 -84 -131 -116 -351 -322 -57 -53 -132
-123 -167 -155 l-62 -59 75 -120 c41 -65 81 -123 89 -129 8 -7 349 -10 975
-10 l961 0 123 122 c187 187 331 325 552 528 60 55 116 107 125 115 9 8 52 46
96 84 43 39 84 75 89 81 6 6 80 71 165 144 160 138 166 143 265 226 33 27 65
54 71 60 6 5 30 26 54 45 24 19 71 58 104 86 55 45 259 208 346 276 19 15 70
54 112 87 102 80 442 334 598 447 541 392 1091 755 1708 1128 106 64 197 116
202 116 6 0 10 5 10 10 0 6 4 10 9 10 8 0 68 34 156 87 11 7 27 15 35 20 8 4
38 20 65 36 28 17 68 40 90 52 22 12 146 80 275 152 129 71 287 157 350 190
63 33 160 84 215 113 285 151 885 443 1219 594 89 41 181 83 206 94 58 26 273
121 420 184 194 84 677 282 835 342 83 32 159 62 170 66 92 40 430 166 750
280 371 131 983 336 1230 410 33 10 112 34 175 53 222 68 496 149 580 172 47
13 202 55 345 95 291 80 760 200 995 255 358 84 406 96 425 100 11 2 72 15
135 30 119 27 476 103 520 111 14 2 45 9 70 14 25 6 54 12 65 14 81 15 111 20
115 21 3 1 23 5 45 9 22 5 94 19 160 32 66 13 138 26 160 29 22 4 47 8 55 10
18 6 243 46 285 51 16 2 37 6 45 9 8 2 33 7 55 10 22 3 76 12 120 20 44 8 98
17 120 20 53 8 154 24 185 29 14 3 41 7 60 10 19 3 44 7 55 10 11 2 43 7 70
10 28 4 61 9 75 11 14 2 59 8 100 14 41 6 122 17 180 26 58 8 125 17 150 20
25 4 56 8 70 10 80 11 111 15 160 20 30 3 66 8 80 10 63 9 109 15 155 20 28 3
66 7 85 9 19 3 64 7 100 11 36 3 76 8 90 10 14 3 46 7 71 9 25 3 75 7 110 11
35 3 82 8 104 10 22 2 72 7 110 10 39 4 87 8 108 9 20 2 40 6 44 10 6 5 -53 6
-60 0z"/>
<path d="M268 10995 c-6 -11 -33 -61 -60 -111 l-48 -92 32 -20 c26 -16 340
-244 577 -419 13 -10 376 -274 806 -588 430 -313 793 -578 806 -588 101 -74
150 -107 158 -107 6 0 52 24 103 53 135 78 323 182 443 247 33 18 78 42 100
55 68 38 248 132 535 278 151 77 276 143 278 146 1 4 -53 47 -120 96 -68 49
-127 93 -133 98 -10 7 -142 104 -180 131 -11 8 -58 43 -105 78 -47 35 -160
117 -250 183 -181 131 -287 209 -310 228 -8 7 -46 34 -85 62 -38 27 -75 54
-82 60 -6 5 -79 59 -163 120 l-152 110 -1070 0 c-1060 0 -1070 0 -1080 -20z"/>
<path d="M5303 8524 c-136 -103 -263 -200 -283 -215 -19 -16 -141 -113 -270
-216 -129 -104 -276 -222 -326 -264 l-90 -75 124 -90 c69 -49 130 -94 136 -99
6 -6 34 -26 61 -45 28 -19 55 -38 60 -43 6 -4 177 -129 380 -277 204 -149 379
-276 390 -285 11 -8 77 -55 145 -105 69 -50 132 -96 141 -103 8 -7 31 -23 50
-37 19 -13 161 -117 317 -231 l284 -206 1081 1 1082 1 20 40 c12 22 32 67 45
99 l24 59 -26 21 c-13 12 -69 53 -122 91 -54 39 -125 91 -159 116 -34 25 -181
133 -327 239 -335 245 -502 367 -515 377 -5 5 -133 98 -283 208 -151 110 -290
212 -310 227 -20 15 -59 43 -87 62 -27 19 -151 110 -275 201 -124 91 -294 216
-379 278 -85 61 -211 154 -280 204 -69 51 -135 99 -146 107 -11 8 -60 44 -108
80 -48 37 -92 66 -97 66 -5 0 -121 -84 -257 -186z"/>
</g>
</svg>
